<?xml version="1.0" encoding="UTF-8"?>
<svg version="1.1" xmlns="http://www.w3.org/2000/svg" width="500" height="500">
<path d="M0 0 C165 0 330 0 500 0 C500 165 500 330 500 500 C335 500 170 500 0 500 C0 335 0 170 0 0 Z " fill="#AFC59D" transform="translate(0,0)"/>
<path d="M0 0 C1.12622772 -0.00503792 1.12622772 -0.00503792 2.27520752 -0.01017761 C4.73402608 -0.0196018 7.19277588 -0.02162659 9.65161133 -0.02270508 C11.38023404 -0.02592425 13.10885648 -0.0292888 14.83747864 -0.03279114 C18.4543216 -0.0387616 22.07114074 -0.04063325 25.68798828 -0.04003906 C30.2893792 -0.03993771 34.89061487 -0.05357103 39.49196911 -0.07081127 C43.06194235 -0.08201185 46.63187906 -0.08395579 50.20186806 -0.08342934 C51.89648281 -0.08459807 53.59109885 -0.08895654 55.28569603 -0.0967617 C82.18312281 -0.20902878 82.18312281 -0.20902878 93.04614258 7.14526367 C93.04614258 7.80526367 93.04614258 8.46526367 93.04614258 9.14526367 C93.82989258 9.02151367 94.61364258 8.89776367 95.42114258 8.77026367 C100.83732922 9.33055884 104.5563945 12.22087942 109.04614258 15.14526367 C110.32618164 15.88389648 110.32618164 15.88389648 111.63208008 16.63745117 C117.40472398 20.2430184 121.48271172 25.41832121 125.04614258 31.14526367 C125.60301758 31.80526367 126.15989258 32.46526367 126.73364258 33.14526367 C128.43728005 35.74128267 128.69917505 38.09194938 129.04614258 41.14526367 C129.70614258 41.14526367 130.36614258 41.14526367 131.04614258 41.14526367 C131.83387835 42.55260188 132.60002567 43.97201779 133.35864258 45.39526367 C134.0025293 46.57862305 134.0025293 46.57862305 134.65942383 47.78588867 C138.61520461 57.36890689 139.50915035 66.68157759 139.38232422 76.96557617 C139.35842801 79.03888033 139.36182827 81.11091624 139.3684082 83.18432617 C139.34321756 89.23813126 139.19808894 94.40640319 137.04614258 100.14526367 C136.73676758 101.23838867 136.42739258 102.33151367 136.10864258 103.45776367 C135.75801758 104.34463867 135.40739258 105.23151367 135.04614258 106.14526367 C134.05614258 106.47526367 133.06614258 106.80526367 132.04614258 107.14526367 C131.89145508 108.97057617 131.89145508 108.97057617 131.73364258 110.83276367 C131.2718694 114.54673941 130.39281145 117.14152752 128.04614258 120.14526367 C127.38614258 120.14526367 126.72614258 120.14526367 126.04614258 120.14526367 C125.75739258 120.72276367 125.46864258 121.30026367 125.17114258 121.89526367 C124.12947591 123.97859701 123.08780924 126.06193034 122.04614258 128.14526367 C121.38614258 128.14526367 120.72614258 128.14526367 120.04614258 128.14526367 C119.79864258 128.72276367 119.55114258 129.30026367 119.29614258 129.89526367 C117.88014602 132.44405748 116.09891043 134.09249582 114.04614258 136.14526367 C113.71614258 137.13526367 113.38614258 138.12526367 113.04614258 139.14526367 C111.26879883 140.31323242 111.26879883 140.31323242 109.10864258 141.33276367 C108.04323242 141.8490332 108.04323242 141.8490332 106.95629883 142.37573242 C105.04614258 143.14526367 105.04614258 143.14526367 103.04614258 143.14526367 C103.04614258 143.80526367 103.04614258 144.46526367 103.04614258 145.14526367 C84.67015852 155.23133011 69.76473602 157.46248832 49.08520508 157.34057617 C47.19949495 157.33683679 45.31378285 157.3339942 43.42807007 157.33200073 C38.51267951 157.32443705 33.5974109 157.30485275 28.68206787 157.28259277 C23.64719288 157.26197603 18.6122978 157.25296548 13.57739258 157.24291992 C3.73358958 157.22159856 -6.1101237 157.18755261 -15.95385742 157.14526367 C-15.95385742 156.48526367 -15.95385742 155.82526367 -15.95385742 155.14526367 C-17.06760742 155.16588867 -18.18135742 155.18651367 -19.32885742 155.20776367 C-22.95385742 155.14526367 -22.95385742 155.14526367 -24.95385742 154.14526367 C-24.82885742 152.39526367 -24.82885742 152.39526367 -23.95385742 150.14526367 C-22.00075854 148.74412752 -19.99676924 147.411869 -17.95385742 146.14526367 C-17.43823242 145.62963867 -16.92260742 145.11401367 -16.39135742 144.58276367 C-14.95385742 143.14526367 -14.95385742 143.14526367 -12.61791992 141.81713867 C-4.74353375 136.87544178 0.16072477 128.80151709 3.04614258 120.14526367 C3.83382019 120.13717682 4.6214978 120.12908997 5.43304443 120.12075806 C12.90524497 120.04238021 20.37726223 119.95496467 27.84923935 119.85773659 C31.68941482 119.80807649 35.52956674 119.76174751 39.36987305 119.72338867 C43.08530992 119.68614854 46.80053365 119.63969177 50.51578522 119.58720016 C51.92370056 119.56885945 53.33166122 119.55367908 54.73964691 119.54191971 C69.35143215 120.24147278 69.35143215 120.24147278 82.22869873 115.16470337 C82.8284552 114.49828827 83.42821167 113.83187317 84.04614258 113.14526367 C85.65624364 112.10108922 87.28214544 111.0809691 88.92114258 110.08276367 C94.67421728 106.15404156 97.30110182 101.43289082 100.04614258 95.14526367 C100.58754883 93.92709961 100.58754883 93.92709961 101.13989258 92.68432617 C104.93265675 82.05804725 103.9189048 70.01376346 100.31176758 59.53588867 C98.90276464 56.87443868 97.49302743 55.83156264 95.04614258 54.14526367 C94.77801758 53.38213867 94.50989258 52.61901367 94.23364258 51.83276367 C91.38907437 45.39505668 85.26685481 42.61007418 79.04614258 40.14526367 C77.70823616 39.15139034 76.37396136 38.15257447 75.04614258 37.14526367 C71.26592259 35.81450324 67.3641033 35.99029201 63.40698242 35.98413086 C62.6421756 35.97916595 61.87736877 35.97420105 61.08938599 35.96908569 C58.56194146 35.95449613 56.03455979 35.94766585 53.50708008 35.94213867 C51.74313354 35.93638264 49.97918701 35.93062497 48.21524048 35.92486572 C44.51482859 35.9143635 40.81443836 35.90851638 37.11401367 35.9050293 C32.39332264 35.89955967 27.67292222 35.87556127 22.95232201 35.84705734 C19.3061136 35.8283442 15.65997382 35.82322067 12.01372147 35.82169342 C10.2747502 35.81868367 8.53577966 35.81071244 6.79685593 35.79750824 C-9.73690393 35.55821721 -9.73690393 35.55821721 -23.95385742 43.14526367 C-25.27385742 43.14526367 -26.59385742 43.14526367 -27.95385742 43.14526367 C-27.95385742 43.80526367 -27.95385742 44.46526367 -27.95385742 45.14526367 C-28.69635742 45.70213867 -29.43885742 46.25901367 -30.20385742 46.83276367 C-35.27477284 51.09694255 -37.50093469 57.13560297 -39.95385742 63.14526367 C-40.61385742 63.14526367 -41.27385742 63.14526367 -41.95385742 63.14526367 C-41.96320313 63.79487061 -41.97254883 64.44447754 -41.98217773 65.11376953 C-42.03640825 68.10415706 -42.11994892 71.09306743 -42.20385742 74.08276367 C-42.21803711 75.1043457 -42.2322168 76.12592773 -42.24682617 77.1784668 C-42.45955496 83.83687796 -43.36837596 89.42038791 -46.95385742 95.14526367 C-49.26635742 96.89526367 -49.26635742 96.89526367 -51.95385742 98.14526367 C-53.79658463 99.44953163 -55.59852786 100.80057028 -57.40307617 102.15698242 C-58.95385742 103.14526367 -58.95385742 103.14526367 -60.95385742 103.14526367 C-60.95385742 103.80526367 -60.95385742 104.46526367 -60.95385742 105.14526367 C-62.20049073 105.65359958 -63.45135129 106.15157512 -64.70385742 106.64526367 C-65.39995117 106.92370117 -66.09604492 107.20213867 -66.81323242 107.48901367 C-68.95385742 108.14526367 -68.95385742 108.14526367 -72.95385742 108.14526367 C-72.95385742 107.15526367 -72.95385742 106.16526367 -72.95385742 105.14526367 C-73.61385742 105.14526367 -74.27385742 105.14526367 -74.95385742 105.14526367 C-78.31425322 96.57095123 -78.58725918 88.04558122 -78.57885742 78.95776367 C-78.58164703 78.21446808 -78.58443665 77.47117249 -78.58731079 76.70535278 C-78.57952852 63.826041 -77.6017035 49.54086373 -70.95385742 38.14526367 C-69.46885742 37.65026367 -69.46885742 37.65026367 -67.95385742 37.14526367 C-66.79987663 35.5460186 -66.79987663 35.5460186 -65.89135742 33.64526367 C-64.15743376 30.24705184 -64.15743376 30.24705184 -61.95385742 29.14526367 C-61.64448242 28.36151367 -61.33510742 27.57776367 -61.01635742 26.77026367 C-59.96362094 24.1693853 -59.13119042 22.86898563 -56.95385742 21.14526367 C-56.29385742 21.14526367 -55.63385742 21.14526367 -54.95385742 21.14526367 C-54.62385742 20.15526367 -54.29385742 19.16526367 -53.95385742 18.14526367 C-51.77416992 16.64526367 -51.77416992 16.64526367 -49.07885742 15.14526367 C-45.91247257 13.37282667 -43.4851663 11.71864417 -40.95385742 9.14526367 C-35.70626016 5.97257843 -29.78512337 4.44505233 -23.89135742 2.95776367 C-22.90099487 2.70748413 -22.90099487 2.70748413 -21.890625 2.45214844 C-14.6254566 0.70264336 -7.46745853 -0.00490796 0 0 Z " fill="#2E4B2E" transform="translate(280.953857421875,178.854736328125)"/>
<path d="M0 0 C0.77149384 -0.0049649 1.54298767 -0.00992981 2.33786011 -0.01504517 C4.88271999 -0.02961205 7.42751743 -0.03646151 9.97241211 -0.04199219 C11.28352368 -0.04623325 11.28352368 -0.04623325 12.62112236 -0.05056 C17.25148698 -0.06553475 21.8818206 -0.07477356 26.51220703 -0.07910156 C31.26742259 -0.08456733 36.02234908 -0.10856004 40.7774744 -0.13707352 C44.45721732 -0.15581623 48.13689241 -0.16091176 51.816679 -0.16243744 C53.56795256 -0.16544098 55.31922559 -0.17339059 57.07045174 -0.18662262 C66.87913866 -0.25541404 75.75219376 0.06873527 85.18725586 3.16113281 C84.87475586 5.53613281 84.87475586 5.53613281 84.18725586 8.16113281 C81.18725586 10.16113281 81.18725586 10.16113281 77.18725586 10.16113281 C76.78506836 11.03705078 76.78506836 11.03705078 76.37475586 11.93066406 C75.1750213 14.18411285 73.85708444 15.92415537 72.18725586 17.84863281 C71.67163086 18.450625 71.15600586 19.05261719 70.62475586 19.67285156 C69.18725586 21.16113281 69.18725586 21.16113281 67.18725586 22.16113281 C66.44475586 23.89363281 66.44475586 23.89363281 65.68725586 25.66113281 C64.18725586 29.16113281 64.18725586 29.16113281 62.18725586 30.16113281 C61.13917545 32.13636127 60.13521475 34.1359479 59.18725586 36.16113281 C57.97029274 36.17659401 57.97029274 36.17659401 56.72874451 36.19236755 C49.06374529 36.29055383 41.39882236 36.39309724 33.7339468 36.50047207 C29.79384959 36.55551564 25.85374475 36.60890469 21.91357422 36.65844727 C18.10745747 36.70636626 14.30142459 36.75871667 10.49540901 36.81407356 C9.04705979 36.83437308 7.59868768 36.85310559 6.15029716 36.87020683 C4.11362363 36.89452802 2.07710448 36.92454099 0.04052734 36.95581055 C-1.6948806 36.97912697 -1.6948806 36.97912697 -3.46534729 37.00291443 C-13.22380079 37.46415844 -19.35154335 40.01661451 -26.81274414 46.16113281 C-27.47274414 46.16113281 -28.13274414 46.16113281 -28.81274414 46.16113281 C-29.09375977 46.74507812 -29.37477539 47.32902344 -29.66430664 47.93066406 C-31.06138042 50.64402844 -32.71233427 53.13245085 -34.39868164 55.67285156 C-34.86532227 56.49398437 -35.33196289 57.31511719 -35.81274414 58.16113281 C-36.1560376 58.75047607 -36.49933105 59.33981934 -36.85302734 59.94702148 C-40.44531979 66.86844356 -40.37762745 73.42687035 -40.25024414 81.09863281 C-40.25733398 82.32904297 -40.26442383 83.55945313 -40.27172852 84.82714844 C-40.27774045 89.51306017 -40.27774045 89.51306017 -39.81274414 94.16113281 C-38.82274414 94.82113281 -37.83274414 95.48113281 -36.81274414 96.16113281 C-36.22290039 98.03613281 -36.22290039 98.03613281 -35.87524414 100.16113281 C-35.45025498 102.30166262 -35.45025498 102.30166262 -34.81274414 104.16113281 C-32.92958255 105.26949704 -32.92958255 105.26949704 -30.81274414 106.16113281 C-30.23524414 107.25425781 -29.65774414 108.34738281 -29.06274414 109.47363281 C-26.38427373 114.51545947 -22.01165414 117.00446479 -16.73852539 118.91113281 C-15.11249865 119.38607774 -13.46391182 119.78274022 -11.81274414 120.16113281 C-11.81274414 120.82113281 -11.81274414 121.48113281 -11.81274414 122.16113281 C-1.01573524 122.12300521 9.78092881 122.06354066 20.57766628 121.97723007 C25.59166667 121.93780948 30.60549285 121.90559444 35.61962891 121.89013672 C40.46334096 121.87493444 45.30657393 121.84042561 50.1500721 121.79282379 C51.99308152 121.77804677 53.83615936 121.77009392 55.67922783 121.76924896 C68.93865787 121.83001932 68.93865787 121.83001932 81.18725586 117.16113281 C82.17725586 117.16113281 83.16725586 117.16113281 84.18725586 117.16113281 C84.18725586 116.50113281 84.18725586 115.84113281 84.18725586 115.16113281 C85.49949721 114.08693978 86.86450264 113.07686672 88.24975586 112.09863281 C97.79843554 104.77197293 101.99290942 97.01550716 104.18725586 85.16113281 C104.59142877 81.25475901 104.74493434 77.36438373 104.81616211 73.43847656 C105.42689101 68.04477606 107.93507034 65.06039644 111.99975586 61.66113281 C112.69842773 61.06945312 113.39709961 60.47777344 114.11694336 59.86816406 C115.41175634 58.80055412 116.70834608 57.73509124 118.00756836 56.67285156 C121.03720508 54.29214224 121.03720508 54.29214224 123.18725586 51.16113281 C127.25963343 49.45641662 130.77825066 48.66010949 135.18725586 49.16113281 C138.06305567 53.47483253 139.18725586 56.96848042 139.18725586 62.16113281 C139.84725586 62.16113281 140.50725586 62.16113281 141.18725586 62.16113281 C141.26196927 66.57190625 141.31612099 70.98233465 141.35205078 75.39355469 C141.36704474 76.89101588 141.38744691 78.38843386 141.41357422 79.88574219 C141.5494785 87.88011165 141.66510132 94.78439522 138.18725586 102.16113281 C137.15511638 105.75844246 136.19826066 109.36913116 135.24975586 112.98925781 C134.24797894 115.97985655 133.34874296 117.88706826 131.18725586 120.16113281 C130.52725586 120.16113281 129.86725586 120.16113281 129.18725586 120.16113281 C129.10475586 120.73863281 129.02225586 121.31613281 128.93725586 121.91113281 C127.95168956 124.86783171 126.46268156 126.00546636 124.18725586 128.16113281 C123.14121733 129.4074766 122.10006552 130.6579287 121.06225586 131.91113281 C115.0471391 138.84666615 107.23752282 145.89856607 98.18725586 148.16113281 C97.85725586 148.82113281 97.52725586 149.48113281 97.18725586 150.16113281 C94.90209961 151.01269531 94.90209961 151.01269531 92.12475586 151.78613281 C91.2056543 152.04652344 90.28655273 152.30691406 89.33959961 152.57519531 C88.27418945 152.86523438 88.27418945 152.86523438 87.18725586 153.16113281 C87.18725586 153.82113281 87.18725586 154.48113281 87.18725586 155.16113281 C75.84126612 158.2293793 65.17216103 158.61997105 53.49975586 158.59472656 C51.62516086 158.59930113 49.75056754 158.60461044 47.87597656 158.61061096 C43.96957535 158.61948654 40.06337919 158.61718201 36.15698242 158.60717773 C31.18796976 158.59568245 26.21966722 158.61593683 21.25074768 158.64509487 C17.38647074 158.66356806 13.52236062 158.66314263 9.65805054 158.65745735 C7.82749433 158.65730556 5.99692576 158.66323001 4.16641235 158.67574883 C-6.60490873 158.73907044 -16.75062363 158.45369623 -26.81274414 154.16113281 C-27.14274414 153.50113281 -27.47274414 152.84113281 -27.81274414 152.16113281 C-29.85890975 151.2887037 -29.85890975 151.2887037 -32.25024414 150.59863281 C-36.68616186 149.22442395 -36.68616186 149.22442395 -38.81274414 148.16113281 C-38.81274414 147.50113281 -38.81274414 146.84113281 -38.81274414 146.16113281 C-39.89555664 146.13019531 -39.89555664 146.13019531 -41.00024414 146.09863281 C-44.69473237 144.86713674 -45.44749952 143.02536983 -47.50024414 139.85644531 C-49.43003387 137.36380024 -52.00987455 136.5339669 -54.81274414 135.16113281 C-57.04697646 133.01008999 -58.90784629 130.60355135 -60.81274414 128.16113281 C-61.41602539 127.43152344 -62.01930664 126.70191406 -62.64086914 125.95019531 C-67.82906346 119.56304853 -70.68812605 114.65934526 -71.43334961 106.29296875 C-71.86841845 103.8482962 -72.75476633 101.9793691 -73.82055664 99.73925781 C-76.41275051 93.41806512 -76.36712864 87.47654061 -76.25024414 80.72363281 C-76.25733398 79.57314453 -76.26442383 78.42265625 -76.27172852 77.23730469 C-76.22304024 70.62693519 -75.50057506 64.81363923 -73.52075195 58.49951172 C-72.58116419 55.39628015 -72.1701578 52.37785579 -71.81274414 49.16113281 C-71.15274414 49.16113281 -70.49274414 49.16113281 -69.81274414 49.16113281 C-69.79211914 48.06800781 -69.77149414 46.97488281 -69.75024414 45.84863281 C-69.03675587 39.82722423 -65.5243432 34.82420415 -61.81274414 30.16113281 C-61.15274414 30.16113281 -60.49274414 30.16113281 -59.81274414 30.16113281 C-59.47243164 29.35675781 -59.47243164 29.35675781 -59.12524414 28.53613281 C-54.67278204 20.47929663 -47.3440295 14.4350815 -38.81274414 11.16113281 C-37.55275965 10.40673033 -36.30287533 9.63524495 -35.06274414 8.84863281 C-24.80427188 3.00892816 -11.70568332 0.01815938 0 0 Z " fill="#CAAA63" transform="translate(141.812744140625,177.8388671875)"/>
<path d="M0 0 C0.66 0.33 1.32 0.66 2 1 C1.57847656 1.48210937 1.15695312 1.96421875 0.72265625 2.4609375 C0.17480469 3.09257812 -0.37304688 3.72421875 -0.9375 4.375 C-1.48277344 5.00148438 -2.02804687 5.62796875 -2.58984375 6.2734375 C-4.06958624 7.95632334 -4.06958624 7.95632334 -5 10 C5.91766837 10.79789671 16.76956615 11.1624771 27.71484375 11.16796875 C29.2655083 11.1711975 30.81617257 11.17456265 32.36683655 11.17805481 C35.58953557 11.18398097 38.81220804 11.18590136 42.03491211 11.18530273 C46.11329925 11.1852011 50.19151237 11.19888425 54.26985836 11.21607494 C57.46424607 11.22732408 60.65859327 11.22921809 63.85299873 11.22869301 C65.35451421 11.2298526 66.85603147 11.23415654 68.35752678 11.24202538 C80.67077521 11.30056212 92.92738054 10.60317771 105 8 C104 10 104 10 101.32046509 11.05545044 C89.10304267 14.53085544 76.6175756 14.26946667 64.0390625 14.1953125 C62.15335237 14.19157311 60.26764027 14.18873053 58.38192749 14.18673706 C53.46653693 14.17917338 48.55126833 14.15958907 43.63592529 14.1373291 C38.6010503 14.11671235 33.56615522 14.10770181 28.53125 14.09765625 C18.687447 14.07633489 8.84373372 14.04228894 -1 14 C-1 13.34 -1 12.68 -1 12 C-2.11375 12.020625 -3.2275 12.04125 -4.375 12.0625 C-8 12 -8 12 -10 11 C-9.875 9.25 -9.875 9.25 -9 7 C-7.04690112 5.59886384 -5.04291182 4.26660533 -3 3 C-1.20605554 1.37648891 -1.20605554 1.37648891 0 0 Z " fill="#5B7157" transform="translate(266,322)"/>
<path d="M0 0 C0.81065414 -0.00511093 1.62130829 -0.01022186 2.45652771 -0.01548767 C5.12587965 -0.02934034 7.79497193 -0.02842929 10.46435547 -0.02612305 C12.33275446 -0.0300141 14.20115258 -0.03434961 16.06954956 -0.03910828 C19.98503485 -0.04656251 23.90042997 -0.04628626 27.81591797 -0.04101562 C32.80541306 -0.03524086 37.79453454 -0.05210753 42.78396797 -0.0753603 C46.64472573 -0.09018159 50.50539543 -0.09095766 54.36617661 -0.08785057 C56.20396536 -0.08836019 58.04175952 -0.09352968 59.87952042 -0.10366249 C83.36087921 -0.21718801 83.36087921 -0.21718801 93.70654297 6.2746582 C95.63160297 7.19692042 97.56941072 8.09304503 99.51904297 8.9621582 C100.49486328 9.39915039 101.47068359 9.83614258 102.47607422 10.28637695 C103.21212891 10.61250977 103.94818359 10.93864258 104.70654297 11.2746582 C104.70654297 11.9346582 104.70654297 12.5946582 104.70654297 13.2746582 C99.75654297 12.2846582 99.75654297 12.2846582 94.70654297 11.2746582 C94.70654297 10.6146582 94.70654297 9.9546582 94.70654297 9.2746582 C93.96404297 8.9859082 93.22154297 8.6971582 92.45654297 8.3996582 C89.70654297 7.2746582 89.70654297 7.2746582 87.87724304 6.27389526 C77.44289678 1.47065892 63.60397966 3.01509242 52.40576172 3.0793457 C50.47378182 3.08308396 48.5418 3.08592708 46.6098175 3.08792114 C41.56782638 3.09549371 36.52595369 3.11508611 31.48400879 3.1373291 C26.32187501 3.15792625 21.15972177 3.16695228 15.99755859 3.17700195 C5.90050185 3.19833909 -4.19646768 3.23239635 -14.29345703 3.2746582 C-14.29345703 2.9446582 -14.29345703 2.6146582 -14.29345703 2.2746582 C-9.47649652 0.36695371 -5.11847663 -0.01680911 0 0 Z " fill="#788D6F" transform="translate(279.29345703125,176.725341796875)"/>
<path d="M0 0 C6.55186726 0.88198213 6.55186726 0.88198213 9.00193787 1.52721977 C12.38010319 2.32655916 15.83140739 2.13831757 19.28515625 2.12939453 C20.11812225 2.13114685 20.95108826 2.13289917 21.80929565 2.13470459 C24.56038502 2.13910279 27.31140999 2.13619224 30.0625 2.1328125 C31.97534192 2.13348612 33.88818376 2.13445664 35.80102539 2.13571167 C39.80909033 2.13718589 43.81713297 2.13504292 47.82519531 2.13037109 C52.9633817 2.12467398 58.10151585 2.12795445 63.23970032 2.13394356 C67.18933506 2.13755659 71.13895741 2.13640716 75.08859253 2.13381577 C76.98322557 2.13314856 78.87785973 2.13396774 80.77249146 2.13629532 C83.41997255 2.13883398 86.06736897 2.13496405 88.71484375 2.12939453 C89.49834198 2.13141876 90.28184021 2.13344299 91.08908081 2.13552856 C94.58191978 2.12191221 97.63265699 1.85164729 101 1 C103.24907152 0.93209325 105.50001605 0.91500016 107.75 0.9375 C109.50570312 0.95103516 109.50570312 0.95103516 111.296875 0.96484375 C112.18890625 0.97644531 113.0809375 0.98804688 114 1 C104.87157677 7.08561549 91.16644255 5.32737167 80.60546875 5.3359375 C78.72658694 5.34237922 76.8477061 5.34910856 74.96882629 5.35610962 C71.04454221 5.36802995 67.12034581 5.37179581 63.19604492 5.37060547 C58.20343773 5.37040243 53.21140067 5.39771285 48.21892834 5.43214989 C44.34179677 5.45454328 40.46479982 5.45843924 36.58761024 5.45738602 C34.74867093 5.45972298 32.9097268 5.46843703 31.07085228 5.48405075 C19.99450709 5.56931125 10.47763205 4.80205213 0 1 C0 0.67 0 0.34 0 0 Z " fill="#BDB37D" transform="translate(115,331)"/>
<path d="M0 0 C0.66 0.33 1.32 0.66 2 1 C2 2.32 2 3.64 2 5 C2.66 5 3.32 5 4 5 C4.07471341 9.41077344 4.12886513 13.82120184 4.16479492 18.23242188 C4.17978888 19.72988307 4.20019105 21.22730105 4.22631836 22.72460938 C4.36222264 30.71897884 4.47784546 37.62326241 1 45 C-0.03213948 48.59730965 -0.9889952 52.20799834 -1.9375 55.828125 C-2.93927692 58.81872374 -3.8385129 60.72593545 -6 63 C-6.66 63 -7.32 63 -8 63 C-8.495 63.99 -8.495 63.99 -9 65 C-8.62652204 61.73206785 -8.15167322 60.18011195 -6 57.625 C-3.54858828 54.40752211 -3.38162701 51.96892089 -3 48 C-2.505 47.505 -2.505 47.505 -2 47 C2.84479113 32.34011388 2.25962043 15.12487865 0 0 Z " fill="#BEB47E" transform="translate(279,235)"/>
<path d="M0 0 C0.625 1.8125 0.625 1.8125 1 4 C0.01 5.485 0.01 5.485 -1 7 C-1.33160271 8.96070807 -1.33160271 8.96070807 -1.34375 11.08984375 C-1.38822266 12.26643555 -1.38822266 12.26643555 -1.43359375 13.46679688 C-1.45550781 14.28212891 -1.47742188 15.09746094 -1.5 15.9375 C-1.54357438 17.55103349 -1.59538307 19.16437001 -1.65625 20.77734375 C-1.67494141 21.49140381 -1.69363281 22.20546387 -1.71289062 22.94116211 C-2.04098652 25.29391097 -2.93883805 26.88887913 -4 29 C-4.08378906 30.27875 -4.16757813 31.5575 -4.25390625 32.875 C-4.77696566 37.81030018 -7.23793411 39.94925461 -10.9375 43 C-11.76411133 43.73283203 -11.76411133 43.73283203 -12.60742188 44.48046875 C-16.66424851 48 -16.66424851 48 -19 48 C-19.28875 48.598125 -19.5775 49.19625 -19.875 49.8125 C-21 52 -21 52 -23 55 C-24.65 54.67 -26.3 54.34 -28 54 C-27.67 53.34 -27.34 52.68 -27 52 C-26.01 52 -25.02 52 -24 52 C-24 51.34 -24 50.68 -24 50 C-22.68775864 48.92580696 -21.32275322 47.91573391 -19.9375 46.9375 C-10.38882032 39.61084012 -6.19434644 31.85437435 -4 20 C-3.59582709 16.0936262 -3.44232152 12.20325092 -3.37109375 8.27734375 C-2.97229312 4.75530454 -2.03756923 2.85908255 0 0 Z " fill="#C1B27A" transform="translate(250,243)"/>
<path d="M0 0 C1 3 1 3 0.1875 5.125 C-1 7 -1 7 -3 8 C-3.99 9.98 -4.98 11.96 -6 14 C-28.77 14.33 -51.54 14.66 -75 15 C-75 14.34 -75 13.68 -75 13 C-52.56 13 -30.12 13 -7 13 C-6.01 10.03 -5.02 7.06 -4 4 C-1.8125 1.4375 -1.8125 1.4375 0 0 Z " fill="#C0AD72" transform="translate(207,200)"/>
<path d="M0 0 C0 0.66 0 1.32 0 2 C-0.66 2.391875 -1.32 2.78375 -2 3.1875 C-8.39211426 7.04940237 -12.89779795 11.14250072 -16 18 C-16.99 18.33 -17.98 18.66 -19 19 C-19.36548445 20.32488113 -19.6937566 21.66018514 -20 23 C-20.99307821 24.33849671 -21.99357052 25.67151309 -23 27 C-23.33 27.86625 -23.66 28.7325 -24 29.625 C-25 32 -25 32 -28 34 C-26.79293461 27.36114037 -24.4118187 22.17909151 -20 17 C-19.34 17 -18.68 17 -18 17 C-17.6596875 16.195625 -17.6596875 16.195625 -17.3125 15.375 C-14.3129799 9.94729696 -6.73298014 0 0 0 Z " fill="#BFB37E" transform="translate(100,191)"/>
<path d="M0 0 C1.20809776 3.47886016 0.7475128 5.45411352 -0.41015625 8.90234375 C-2.32887342 15.49471882 -2.47959114 21.73225541 -2.4375 28.5625 C-2.45748047 29.71685547 -2.47746094 30.87121094 -2.49804688 32.06054688 C-2.49424547 38.76241526 -1.76565024 43.86583615 1.23803711 49.89428711 C2.13377872 52.36970249 1.8764125 53.56007036 1 56 C0.35309078 54.3962669 -0.29248764 52.79199694 -0.9375 51.1875 C-1.47697266 49.84751953 -1.47697266 49.84751953 -2.02734375 48.48046875 C-4.51988448 42.12398938 -4.25967513 35.95917734 -4.29516602 29.22387695 C-4.30662772 27.71206255 -4.32698655 26.20028674 -4.35668945 24.6887207 C-4.53136858 15.79179564 -4.36249033 8.03837226 0 0 Z " fill="#BDB583" transform="translate(69,230)"/>
<path d="M0 0 C2.31 0.33 4.62 0.66 7 1 C6.6875 3.375 6.6875 3.375 6 6 C3 8 3 8 -1 8 C-1.26941406 8.58394531 -1.53882813 9.16789063 -1.81640625 9.76953125 C-3.00310231 12.00584626 -4.29797606 13.76429253 -5.9375 15.6875 C-6.44152344 16.28949219 -6.94554687 16.89148438 -7.46484375 17.51171875 C-9 19 -9 19 -12 20 C-12 18.35 -12 16.7 -12 15 C-11.278125 14.79375 -10.55625 14.5875 -9.8125 14.375 C-6.77705708 12.89100569 -5.37216367 11.17704707 -3.3359375 8.53125 C-1.22094802 6.10705153 1.25854898 4.65762155 4 3 C2.68 2.01 1.36 1.02 0 0 Z " fill="#C2AF77" transform="translate(220,180)"/>
<path d="M0 0 C0.33 0 0.66 0 1 0 C1.09765625 6.15234375 1.09765625 6.15234375 1 8 C0.67 8.33 0.34 8.66 0 9 C-0.08851529 11.59359322 -0.11525945 14.16039691 -0.09765625 16.75390625 C-0.09553383 17.91707619 -0.09553383 17.91707619 -0.09336853 19.10374451 C-0.08775345 21.59003494 -0.07519846 24.0762366 -0.0625 26.5625 C-0.05748694 28.24413933 -0.0529237 29.92578006 -0.04882812 31.60742188 C-0.03777913 35.73831566 -0.02050445 39.86914276 0 44 C-2.41696343 40.37455485 -2.28963662 37.70451861 -2.265625 33.515625 C-2.26753845 32.78180603 -2.2694519 32.04798706 -2.27142334 31.29193115 C-2.27278381 29.7385626 -2.26909697 28.18518262 -2.26074219 26.63183594 C-2.25010157 24.27252088 -2.26060991 21.91397792 -2.2734375 19.5546875 C-2.27211468 18.041665 -2.26954977 16.52864298 -2.265625 15.015625 C-2.26967346 14.31745667 -2.27372192 13.61928833 -2.27789307 12.89996338 C-2.23382123 8.2127191 -1.44538751 4.40792953 0 0 Z " fill="#576E51" transform="translate(205,233)"/>
<path d="M0 0 C0.625 1.8125 0.625 1.8125 1 4 C0.01 5.485 0.01 5.485 -1 7 C-1.31566142 8.92839011 -1.31566142 8.92839011 -1.30859375 11.01953125 C-1.33373047 11.79490234 -1.35886719 12.57027344 -1.38476562 13.36914062 C-1.41966734 14.98625344 -1.45097114 16.60344827 -1.47851562 18.22070312 C-1.64765973 23.20839136 -2.35394003 26.61812468 -5 31 C-6.15883866 28.10290334 -5.96490487 26.88258295 -5.05078125 23.82421875 C-3.64633909 18.71288465 -3.6072588 13.79861874 -3.44140625 8.5234375 C-2.98597331 4.88803474 -2.11535506 2.94457424 0 0 Z " fill="#BDB784" transform="translate(250,243)"/>
<path d="M0 0 C0.66 0.33 1.32 0.66 2 1 C1.3503125 1.72316406 1.3503125 1.72316406 0.6875 2.4609375 C0.130625 3.09257812 -0.42625 3.72421875 -1 4.375 C-1.556875 5.00148438 -2.11375 5.62796875 -2.6875 6.2734375 C-4.20172487 7.90389833 -4.20172487 7.90389833 -4 10 C-3.01 10.66 -2.02 11.32 -1 12 C-7.75 12.125 -7.75 12.125 -10 11 C-9.875 9.25 -9.875 9.25 -9 7 C-7.04690112 5.59886384 -5.04291182 4.26660533 -3 3 C-1.20605554 1.37648891 -1.20605554 1.37648891 0 0 Z " fill="#5E795C" transform="translate(266,322)"/>
<path d="M0 0 C6.61242722 1.82221376 12.80520671 4.05223604 19 7 C19 7.66 19 8.32 19 9 C15.7 8.34 12.4 7.68 9 7 C9 6.34 9 5.68 9 5 C8.2575 4.71125 7.515 4.4225 6.75 4.125 C4.43260203 3.17697356 2.22082885 2.15154089 0 1 C0 0.67 0 0.34 0 0 Z " fill="#61775A" transform="translate(365,181)"/>
<path d="M0 0 C1.32 0.66 2.64 1.32 4 2 C3.57847656 2.39832031 3.15695312 2.79664063 2.72265625 3.20703125 C2.17480469 3.73683594 1.62695312 4.26664062 1.0625 4.8125 C0.51722656 5.33457031 -0.02804687 5.85664063 -0.58984375 6.39453125 C-2.23519092 8.05812198 -2.23519092 8.05812198 -3 11 C-3.99 11.33 -4.98 11.66 -6 12 C-6 11.34 -6 10.68 -6 10 C-5.34 10 -4.68 10 -4 10 C-3.67 7.69 -3.34 5.38 -3 3 C-2.01 2.67 -1.02 2.34 0 2 C0 1.34 0 0.68 0 0 Z " fill="#415740" transform="translate(397,307)"/>
<path d="M0 0 C0.66 0 1.32 0 2 0 C1.52797514 4.24822374 -0.96655518 6.19989709 -4 9 C-4.99 8.67 -5.98 8.34 -7 8 C-5.38405168 5.95880212 -3.7143618 3.95927063 -2 2 C-1.34 2 -0.68 2 0 2 C0 1.34 0 0.68 0 0 Z " fill="#8FA582" transform="translate(253,222)"/>
<path d="M0 0 C0.33 0.66 0.66 1.32 1 2 C0.443125 2.53625 -0.11375 3.0725 -0.6875 3.625 C-3.29534327 6.30332552 -5.633254 9.10731044 -8 12 C-9 9 -9 9 -8.14453125 7.24609375 C-3.72137405 1.24045802 -3.72137405 1.24045802 0 0 Z " fill="#C6AD74" transform="translate(269,300)"/>
<path d="M0 0 C1.21236328 0.01353516 1.21236328 0.01353516 2.44921875 0.02734375 C3.37154297 0.04474609 3.37154297 0.04474609 4.3125 0.0625 C1.02758627 2.25244248 -0.51845639 2.41527339 -4.375 2.6875 C-5.86580078 2.79964844 -5.86580078 2.79964844 -7.38671875 2.9140625 C-8.52560547 2.98753906 -8.52560547 2.98753906 -9.6875 3.0625 C-6.66074696 0.03574696 -4.08749979 -0.05923913 0 0 Z " fill="#BDB789" transform="translate(224.6875,331.9375)"/>
<path d="M0 0 C5.17930997 1.24303439 8.70166639 2.85487785 13 6 C11.1875 6.625 11.1875 6.625 9 7 C8.01 6.34 7.02 5.68 6 5 C6 4.34 6 3.68 6 3 C5.195625 2.87625 4.39125 2.7525 3.5625 2.625 C2.716875 2.41875 1.87125 2.2125 1 2 C0.67 1.34 0.34 0.68 0 0 Z " fill="#BDB582" transform="translate(97,321)"/>
<path d="M0 0 C0 3 0 3 -2.25 5.5 C-4.43541108 7.48673735 -6.58854412 9.30304957 -9 11 C-7.59155282 7.78475695 -5.89655214 5.67816132 -3.375 3.25 C-2.74335938 2.63640625 -2.11171875 2.0228125 -1.4609375 1.390625 C-0.73777344 0.70226562 -0.73777344 0.70226562 0 0 Z " fill="#C7AF70" transform="translate(260,234)"/>
<path d="M0 0 C2.31 0.33 4.62 0.66 7 1 C6.8125 3.375 6.8125 3.375 6 6 C3.4375 7.3125 3.4375 7.3125 1 8 C1.99 6.35 2.98 4.7 4 3 C2.68 2.01 1.36 1.02 0 0 Z " fill="#C0B684" transform="translate(220,180)"/>
<path d="M0 0 C2 1.375 2 1.375 4 3 C4 3.66 4 4.32 4 5 C4.99 5.33 5.98 5.66 7 6 C7.6875 8.0625 7.6875 8.0625 8 10 C6.84481082 9.09515208 5.70114594 8.1755794 4.5625 7.25 C3.60537109 6.48429687 3.60537109 6.48429687 2.62890625 5.703125 C0.81189446 3.80332371 0.39576803 2.56413092 0 0 Z " fill="#BEB281" transform="translate(81,304)"/>
<path d="M0 0 C0.99 0.33 1.98 0.66 3 1 C1.68 2.65 0.36 4.3 -1 6 C-2.65 5.67 -4.3 5.34 -6 5 C-5.67 4.34 -5.34 3.68 -5 3 C-4.01 3 -3.02 3 -2 3 C-2 2.34 -2 1.68 -2 1 C-1.34 0.67 -0.68 0.34 0 0 Z " fill="#C4AD70" transform="translate(228,292)"/>
<path d="M0 0 C-8.261959 4.59225513 -8.261959 4.59225513 -13 4 C-4.66666667 -1.55555556 -4.66666667 -1.55555556 0 0 Z " fill="#C2B074" transform="translate(119,184)"/>
<path d="M0 0 C-6.39130435 4.26086957 -6.39130435 4.26086957 -10.3125 3.625 C-10.869375 3.41875 -11.42625 3.2125 -12 3 C-7.77050005 0.58314288 -4.87664009 -0.34833144 0 0 Z " fill="#50644D" transform="translate(220,283)"/>
<path d="M0 0 C3.96 1.98 3.96 1.98 8 4 C8 4.66 8 5.32 8 6 C5.0280615 4.87548273 2.66559313 3.77706209 0 2 C0 1.34 0 0.68 0 0 Z " fill="#BEB685" transform="translate(114,289)"/>
<path d="M0 0 C0 0.99 0 1.98 0 3 C-0.66 3 -1.32 3 -2 3 C-2.33 3.99 -2.66 4.98 -3 6 C-3.99 6 -4.98 6 -6 6 C-4.90218919 2.70656758 -3.7827394 0 0 0 Z " fill="#4F6849" transform="translate(226,200)"/>
</svg>
